<svg id="visual" viewBox="0 0 900 600" width="900" height="600" xmlns="http://www.w3.org/2000/svg" xmlns:xlink="http://www.w3.org/1999/xlink" version="1.1"><path d="M0 217L16.7 207C33.3 197 66.7 177 100 175C133.3 173 166.7 189 200 198C233.3 207 266.7 209 300 199C333.3 189 366.7 167 400 164C433.3 161 466.7 177 500 188C533.3 199 566.7 205 600 202C633.3 199 666.7 187 700 174C733.3 161 766.7 147 800 143C833.3 139 866.7 145 883.3 148L900 151L900 0L883.3 0C866.7 0 833.3 0 800 0C766.7 0 733.3 0 700 0C666.7 0 633.3 0 600 0C566.7 0 533.3 0 500 0C466.7 0 433.3 0 400 0C366.7 0 333.3 0 300 0C266.7 0 233.3 0 200 0C166.7 0 133.3 0 100 0C66.7 0 33.3 0 16.7 0L0 0Z" fill="#ffffff"></path><path d="M0 319L16.7 311C33.3 303 66.7 287 100 279C133.3 271 166.7 271 200 279C233.3 287 266.7 303 300 300C333.3 297 366.7 275 400 272C433.3 269 466.7 285 500 293C533.3 301 566.7 301 600 299C633.3 297 666.7 293 700 279C733.3 265 766.7 241 800 238C833.3 235 866.7 253 883.3 262L900 271L900 149L883.3 146C866.7 143 833.3 137 800 141C766.7 145 733.3 159 700 172C666.7 185 633.3 197 600 200C566.7 203 533.3 197 500 186C466.7 175 433.3 159 400 162C366.7 165 333.3 187 300 197C266.7 207 233.3 205 200 196C166.7 187 133.3 171 100 173C66.7 175 33.3 195 16.7 205L0 215Z" fill="#bfbfbf"></path><path d="M0 427L16.7 424C33.3 421 66.7 415 100 413C133.3 411 166.7 413 200 415C233.3 417 266.7 419 300 412C333.3 405 366.7 389 400 388C433.3 387 466.7 401 500 413C533.3 425 566.7 435 600 435C633.3 435 666.7 425 700 409C733.3 393 766.7 371 800 363C833.3 355 866.7 361 883.3 364L900 367L900 269L883.3 260C866.7 251 833.3 233 800 236C766.7 239 733.3 263 700 277C666.7 291 633.3 295 600 297C566.7 299 533.3 299 500 291C466.7 283 433.3 267 400 270C366.7 273 333.3 295 300 298C266.7 301 233.3 285 200 277C166.7 269 133.3 269 100 277C66.7 285 33.3 301 16.7 309L0 317Z" fill="#848484"></path><path d="M0 601L16.7 601C33.3 601 66.7 601 100 601C133.3 601 166.7 601 200 601C233.3 601 266.7 601 300 601C333.3 601 366.7 601 400 601C433.3 601 466.7 601 500 601C533.3 601 566.7 601 600 601C633.3 601 666.7 601 700 601C733.3 601 766.7 601 800 601C833.3 601 866.7 601 883.3 601L900 601L900 365L883.3 362C866.7 359 833.3 353 800 361C766.7 369 733.3 391 700 407C666.7 423 633.3 433 600 433C566.7 433 533.3 423 500 411C466.7 399 433.3 385 400 386C366.7 387 333.3 403 300 410C266.7 417 233.3 415 200 413C166.7 411 133.3 409 100 411C66.7 413 33.3 419 16.7 422L0 425Z" fill="#4d4d4d"></path></svg>